%TF.GenerationSoftware,KiCad,Pcbnew,8.0.8*%
%TF.CreationDate,2025-02-09T22:20:02-08:00*%
%TF.ProjectId,techin514-final-project,74656368-696e-4353-9134-2d66696e616c,rev?*%
%TF.SameCoordinates,Original*%
%TF.FileFunction,Copper,L1,Top*%
%TF.FilePolarity,Positive*%
%FSLAX46Y46*%
G04 Gerber Fmt 4.6, Leading zero omitted, Abs format (unit mm)*
G04 Created by KiCad (PCBNEW 8.0.8) date 2025-02-09 22:20:02*
%MOMM*%
%LPD*%
G01*
G04 APERTURE LIST*
G04 Aperture macros list*
%AMRoundRect*
0 Rectangle with rounded corners*
0 $1 Rounding radius*
0 $2 $3 $4 $5 $6 $7 $8 $9 X,Y pos of 4 corners*
0 Add a 4 corners polygon primitive as box body*
4,1,4,$2,$3,$4,$5,$6,$7,$8,$9,$2,$3,0*
0 Add four circle primitives for the rounded corners*
1,1,$1+$1,$2,$3*
1,1,$1+$1,$4,$5*
1,1,$1+$1,$6,$7*
1,1,$1+$1,$8,$9*
0 Add four rect primitives between the rounded corners*
20,1,$1+$1,$2,$3,$4,$5,0*
20,1,$1+$1,$4,$5,$6,$7,0*
20,1,$1+$1,$6,$7,$8,$9,0*
20,1,$1+$1,$8,$9,$2,$3,0*%
G04 Aperture macros list end*
%TA.AperFunction,SMDPad,CuDef*%
%ADD10R,0.280000X0.790000*%
%TD*%
%TA.AperFunction,SMDPad,CuDef*%
%ADD11R,0.790000X0.280000*%
%TD*%
%TA.AperFunction,ComponentPad*%
%ADD12C,1.530000*%
%TD*%
%TA.AperFunction,SMDPad,CuDef*%
%ADD13RoundRect,1.000000X0.000010X-0.375000X0.000010X0.375000X-0.000010X0.375000X-0.000010X-0.375000X0*%
%TD*%
%TA.AperFunction,SMDPad,CuDef*%
%ADD14RoundRect,0.250000X-0.350000X-0.450000X0.350000X-0.450000X0.350000X0.450000X-0.350000X0.450000X0*%
%TD*%
%TA.AperFunction,SMDPad,CuDef*%
%ADD15R,1.600000X2.200000*%
%TD*%
%TA.AperFunction,SMDPad,CuDef*%
%ADD16R,2.200000X1.600000*%
%TD*%
%TA.AperFunction,Conductor*%
%ADD17C,0.254000*%
%TD*%
%TA.AperFunction,Conductor*%
%ADD18C,0.500000*%
%TD*%
G04 APERTURE END LIST*
D10*
%TO.P,U3,1,CLKIN*%
%TO.N,GND*%
X116120000Y-97840000D03*
%TO.P,U3,2,NC*%
%TO.N,unconnected-(U3-NC-Pad14)_7*%
X115620000Y-97840000D03*
%TO.P,U3,3,NC*%
%TO.N,unconnected-(U3-NC-Pad14)_3*%
X115120000Y-97840000D03*
%TO.P,U3,4,NC*%
%TO.N,unconnected-(U3-NC-Pad14)_6*%
X114620000Y-97840000D03*
%TO.P,U3,5,NC*%
%TO.N,unconnected-(U3-NC-Pad14)_2*%
X114120000Y-97840000D03*
%TO.P,U3,6,AUX_DA*%
%TO.N,unconnected-(U3-AUX_DA-Pad6)*%
X113620000Y-97840000D03*
D11*
%TO.P,U3,7,AUX_CL*%
%TO.N,unconnected-(U3-AUX_CL-Pad7)*%
X112900000Y-98560000D03*
%TO.P,U3,8,VLOGIC*%
%TO.N,unconnected-(U3-VLOGIC-Pad8)*%
X112900000Y-99060000D03*
%TO.P,U3,9,AD0*%
%TO.N,Net-(U1-PA10_A2_D2)*%
X112900000Y-99560000D03*
%TO.P,U3,10,REGOUT*%
%TO.N,Net-(U3-REGOUT)*%
X112900000Y-100060000D03*
%TO.P,U3,11,FSYNC*%
%TO.N,GND*%
X112900000Y-100560000D03*
%TO.P,U3,12,INT*%
%TO.N,unconnected-(U3-INT-Pad12)*%
X112900000Y-101060000D03*
D10*
%TO.P,U3,13,VDD*%
%TO.N,Net-(U3-VDD)*%
X113620000Y-101780000D03*
%TO.P,U3,14,NC*%
%TO.N,unconnected-(U3-NC-Pad14)_4*%
X114120000Y-101780000D03*
%TO.P,U3,15,NC*%
%TO.N,unconnected-(U3-NC-Pad14)*%
X114620000Y-101780000D03*
%TO.P,U3,16,NC*%
%TO.N,unconnected-(U3-NC-Pad14)_1*%
X115120000Y-101780000D03*
%TO.P,U3,17,NC*%
%TO.N,unconnected-(U3-NC-Pad14)_5*%
X115620000Y-101780000D03*
%TO.P,U3,18,GND*%
%TO.N,GND*%
X116120000Y-101780000D03*
D11*
%TO.P,U3,19,RESV*%
%TO.N,unconnected-(U3-RESV-Pad19)*%
X116840000Y-101060000D03*
%TO.P,U3,20,CPOUT*%
%TO.N,Net-(U3-CPOUT)*%
X116840000Y-100560000D03*
%TO.P,U3,21,RESV*%
%TO.N,unconnected-(U3-RESV-Pad21)*%
X116840000Y-100060000D03*
%TO.P,U3,22,RESV*%
%TO.N,unconnected-(U3-RESV-Pad22)*%
X116840000Y-99560000D03*
%TO.P,U3,23,SCL*%
%TO.N,Net-(U1-PA9_A5_D5_SCL)*%
X116840000Y-99060000D03*
%TO.P,U3,24,SDA*%
%TO.N,Net-(U1-PA8_A4_D4_SDA)*%
X116840000Y-98560000D03*
%TD*%
D12*
%TO.P,U2,2,TRIG*%
%TO.N,Net-(U1-PA02_A0_D0)*%
X105410000Y-64535000D03*
%TO.P,U2,3,ECHO*%
%TO.N,Net-(U1-PA4_A1_D1)*%
X107950000Y-64535000D03*
%TO.P,U2,4,GND*%
%TO.N,GND*%
X110490000Y-64535000D03*
%TO.P,U2,1,VCC*%
%TO.N,Net-(U2-VCC)*%
X102870000Y-64535000D03*
%TD*%
D13*
%TO.P,U1,7,PB08_A6_D6_TX*%
%TO.N,unconnected-(U1-PB08_A6_D6_TX-Pad7)*%
X81899250Y-107142500D03*
%TO.P,U1,6,PA9_A5_D5_SCL*%
%TO.N,Net-(U1-PA9_A5_D5_SCL)*%
X79359250Y-107142500D03*
%TO.P,U1,5,PA8_A4_D4_SDA*%
%TO.N,Net-(U1-PA8_A4_D4_SDA)*%
X76819250Y-107142500D03*
%TO.P,U1,4,PA11_A3_D3*%
%TO.N,unconnected-(U1-PA11_A3_D3-Pad4)*%
X74279250Y-107142500D03*
%TO.P,U1,3,PA10_A2_D2*%
%TO.N,Net-(U1-PA10_A2_D2)*%
X71739250Y-107142500D03*
%TO.P,U1,2,PA4_A1_D1*%
%TO.N,Net-(U1-PA4_A1_D1)*%
X69199250Y-107142500D03*
%TO.P,U1,1,PA02_A0_D0*%
%TO.N,Net-(U1-PA02_A0_D0)*%
X66659250Y-107142500D03*
%TO.P,U1,8,PB09_A7_D7_RX*%
%TO.N,unconnected-(U1-PB09_A7_D7_RX-Pad8)*%
X81899250Y-90977500D03*
%TO.P,U1,9,PA7_A8_D8_SCK*%
%TO.N,unconnected-(U1-PA7_A8_D8_SCK-Pad9)*%
X79359250Y-90977500D03*
%TO.P,U1,10,PA5_A9_D9_MISO*%
%TO.N,unconnected-(U1-PA5_A9_D9_MISO-Pad10)*%
X76819250Y-90977500D03*
%TO.P,U1,11,PA6_A10_D10_MOSI*%
%TO.N,unconnected-(U1-PA6_A10_D10_MOSI-Pad11)*%
X74279250Y-90977500D03*
%TO.P,U1,12,3V3*%
%TO.N,unconnected-(U1-3V3-Pad12)*%
X71739250Y-90977500D03*
%TO.P,U1,13,GND*%
%TO.N,GND*%
X69199250Y-90977500D03*
%TO.P,U1,14,5V*%
%TO.N,Net-(U1-5V)*%
X66659250Y-90977500D03*
%TD*%
D14*
%TO.P,R2,1*%
%TO.N,Net-(U1-5V)*%
X103140000Y-104140000D03*
%TO.P,R2,2*%
%TO.N,Net-(U3-VDD)*%
X105140000Y-104140000D03*
%TD*%
%TO.P,R1,1*%
%TO.N,Net-(U1-5V)*%
X76200000Y-63500000D03*
%TO.P,R1,2*%
%TO.N,Net-(U2-VCC)*%
X78200000Y-63500000D03*
%TD*%
D15*
%TO.P,C3,1*%
%TO.N,Net-(U3-CPOUT)*%
X128040000Y-100100000D03*
%TO.P,C3,2*%
%TO.N,GND*%
X128040000Y-103100000D03*
%TD*%
D16*
%TO.P,C2,1*%
%TO.N,Net-(U3-VDD)*%
X111760000Y-106680000D03*
%TO.P,C2,2*%
%TO.N,GND*%
X114760000Y-106680000D03*
%TD*%
%TO.P,C1,1*%
%TO.N,Net-(U3-REGOUT)*%
X106680000Y-93980000D03*
%TO.P,C1,2*%
%TO.N,GND*%
X103680000Y-93980000D03*
%TD*%
D17*
%TO.N,Net-(U1-PA8_A4_D4_SDA)*%
X90138500Y-104140000D02*
X96520000Y-104140000D01*
%TO.N,Net-(U1-PA9_A5_D5_SCL)*%
X81280000Y-105221750D02*
X81280000Y-104140000D01*
X81280000Y-104140000D02*
X86360000Y-104140000D01*
X86360000Y-104140000D02*
X90027000Y-107807000D01*
X90027000Y-107807000D02*
X107807000Y-107807000D01*
X79359250Y-107142500D02*
X81280000Y-105221750D01*
X107807000Y-107807000D02*
X111133000Y-111133000D01*
X111133000Y-111133000D02*
X119380000Y-111133000D01*
%TO.N,Net-(U1-PA10_A2_D2)*%
X91440000Y-99060000D02*
X86360000Y-99060000D01*
X93980000Y-101600000D02*
X91440000Y-99060000D01*
X86360000Y-99060000D02*
X86360000Y-101600000D01*
X86205500Y-101754500D02*
X72153644Y-101754500D01*
X86360000Y-101600000D02*
X86205500Y-101754500D01*
X72153644Y-101754500D02*
X71739250Y-102168894D01*
X71739250Y-102168894D02*
X71739250Y-107142500D01*
D18*
%TO.N,GND*%
X93980000Y-86360000D02*
X93980000Y-88900000D01*
X112211000Y-100560000D02*
X112900000Y-100560000D01*
X93980000Y-88900000D02*
X107134000Y-102054000D01*
X107134000Y-102054000D02*
X110717000Y-102054000D01*
X110717000Y-102054000D02*
X112211000Y-100560000D01*
%TO.N,Net-(U3-VDD)*%
X105140000Y-104140000D02*
X111260000Y-104140000D01*
D17*
%TO.N,Net-(U1-PA10_A2_D2)*%
X95893000Y-111133000D02*
X93980000Y-109220000D01*
X109220000Y-111133000D02*
X95893000Y-111133000D01*
X112900000Y-99560000D02*
X111260000Y-99560000D01*
X111260000Y-99560000D02*
X109220000Y-101600000D01*
%TO.N,GND*%
X103380000Y-93980000D02*
X98680000Y-89280000D01*
X98680000Y-89280000D02*
X95760000Y-86360000D01*
X116120000Y-97840000D02*
X116120000Y-97151000D01*
X116120000Y-97151000D02*
X108249000Y-89280000D01*
X108249000Y-89280000D02*
X98680000Y-89280000D01*
D18*
X121920000Y-83820000D02*
X93980000Y-83820000D01*
X131453000Y-93353000D02*
X121920000Y-83820000D01*
X93980000Y-86360000D02*
X91440000Y-86360000D01*
X91440000Y-86360000D02*
X69199250Y-86360000D01*
X93980000Y-83820000D02*
X91440000Y-86360000D01*
X95760000Y-86360000D02*
X93980000Y-86360000D01*
X128040000Y-103100000D02*
X129953000Y-103100000D01*
X129953000Y-103100000D02*
X131453000Y-101600000D01*
X131453000Y-101600000D02*
X131453000Y-93353000D01*
%TO.N,Net-(U3-CPOUT)*%
X118926000Y-101600000D02*
X124460000Y-101600000D01*
X124460000Y-101600000D02*
X125960000Y-100100000D01*
X125960000Y-100100000D02*
X128040000Y-100100000D01*
X117886000Y-100560000D02*
X118926000Y-101600000D01*
X116840000Y-100560000D02*
X117886000Y-100560000D01*
%TO.N,GND*%
X69199250Y-81899250D02*
X69199250Y-86360000D01*
X69199250Y-86360000D02*
X69199250Y-90977500D01*
D17*
X103680000Y-93980000D02*
X103380000Y-93980000D01*
%TO.N,Net-(U3-REGOUT)*%
X106680000Y-93980000D02*
X106680000Y-95034000D01*
X111706000Y-100060000D02*
X112900000Y-100060000D01*
%TO.N,Net-(U1-PA9_A5_D5_SCL)*%
X119380000Y-99060000D02*
X116840000Y-99060000D01*
D18*
%TO.N,Net-(U1-5V)*%
X92753500Y-93753500D02*
X103140000Y-104140000D01*
D17*
%TO.N,Net-(U1-PA8_A4_D4_SDA)*%
X111760000Y-86360000D02*
X116840000Y-91440000D01*
X96520000Y-86360000D02*
X111760000Y-86360000D01*
X116840000Y-91440000D02*
X116840000Y-98560000D01*
X89519250Y-103520750D02*
X90138500Y-104140000D01*
X76819250Y-103520750D02*
X89519250Y-103520750D01*
X76819250Y-107142500D02*
X76819250Y-103520750D01*
%TO.N,GND*%
X114760000Y-106680000D02*
X116120000Y-105320000D01*
X116120000Y-105320000D02*
X116120000Y-101780000D01*
X114760000Y-106680000D02*
X114760000Y-106220000D01*
%TO.N,Net-(U3-VDD)*%
X111260000Y-104140000D02*
X111760000Y-104640000D01*
X111760000Y-104640000D02*
X111760000Y-106680000D01*
D18*
X111260000Y-104140000D02*
X113620000Y-101780000D01*
%TO.N,Net-(U1-5V)*%
X66659250Y-90977500D02*
X69435250Y-93753500D01*
X69435250Y-93753500D02*
X92753500Y-93753500D01*
%TO.N,Net-(U2-VCC)*%
X78200000Y-63500000D02*
X101835000Y-63500000D01*
X101835000Y-63500000D02*
X102870000Y-64535000D01*
%TO.N,GND*%
X81280000Y-66040000D02*
X68580000Y-78740000D01*
X68580000Y-78740000D02*
X68580000Y-81280000D01*
X68580000Y-81280000D02*
X69199250Y-81899250D01*
X106915000Y-60960000D02*
X81280000Y-60960000D01*
X110490000Y-64535000D02*
X106915000Y-60960000D01*
D17*
%TO.N,Net-(U1-PA4_A1_D1)*%
X96285000Y-76200000D02*
X91440000Y-76200000D01*
X107950000Y-64535000D02*
X96285000Y-76200000D01*
X91440000Y-109220000D02*
X68580000Y-109220000D01*
X68580000Y-109220000D02*
X68580000Y-107761750D01*
X68580000Y-107761750D02*
X69199250Y-107142500D01*
%TO.N,Net-(U1-PA02_A0_D0)*%
X88900000Y-111133000D02*
X68580000Y-111133000D01*
X68580000Y-111133000D02*
X66659250Y-109212250D01*
X66659250Y-109212250D02*
X66659250Y-107142500D01*
D18*
%TO.N,Net-(U1-5V)*%
X66659250Y-90977500D02*
X66659250Y-73040750D01*
X66659250Y-73040750D02*
X76200000Y-63500000D01*
D17*
%TO.N,Net-(U1-PA02_A0_D0)*%
X105410000Y-64535000D02*
X96285000Y-73660000D01*
X96285000Y-73660000D02*
X88900000Y-73660000D01*
%TD*%
M02*
