%TF.GenerationSoftware,KiCad,Pcbnew,8.0.8*%
%TF.CreationDate,2025-02-09T22:20:03-08:00*%
%TF.ProjectId,techin514-final-project,74656368-696e-4353-9134-2d66696e616c,rev?*%
%TF.SameCoordinates,Original*%
%TF.FileFunction,Legend,Top*%
%TF.FilePolarity,Positive*%
%FSLAX46Y46*%
G04 Gerber Fmt 4.6, Leading zero omitted, Abs format (unit mm)*
G04 Created by KiCad (PCBNEW 8.0.8) date 2025-02-09 22:20:03*
%MOMM*%
%LPD*%
G01*
G04 APERTURE LIST*
%ADD10C,0.100000*%
%ADD11C,0.150000*%
%ADD12C,0.200000*%
%ADD13C,0.127000*%
%ADD14C,0.120000*%
G04 APERTURE END LIST*
D10*
X112016265Y-60856895D02*
X112016265Y-60056895D01*
X112016265Y-60437847D02*
X112473408Y-60437847D01*
X112473408Y-60856895D02*
X112473408Y-60056895D01*
X113197217Y-60856895D02*
X113197217Y-60437847D01*
X113197217Y-60437847D02*
X113159122Y-60361657D01*
X113159122Y-60361657D02*
X113082931Y-60323561D01*
X113082931Y-60323561D02*
X112930550Y-60323561D01*
X112930550Y-60323561D02*
X112854360Y-60361657D01*
X113197217Y-60818800D02*
X113121026Y-60856895D01*
X113121026Y-60856895D02*
X112930550Y-60856895D01*
X112930550Y-60856895D02*
X112854360Y-60818800D01*
X112854360Y-60818800D02*
X112816264Y-60742609D01*
X112816264Y-60742609D02*
X112816264Y-60666419D01*
X112816264Y-60666419D02*
X112854360Y-60590228D01*
X112854360Y-60590228D02*
X112930550Y-60552133D01*
X112930550Y-60552133D02*
X113121026Y-60552133D01*
X113121026Y-60552133D02*
X113197217Y-60514038D01*
X113501979Y-60323561D02*
X113921027Y-60323561D01*
X113921027Y-60323561D02*
X113501979Y-60856895D01*
X113501979Y-60856895D02*
X113921027Y-60856895D01*
X114530551Y-60818800D02*
X114454360Y-60856895D01*
X114454360Y-60856895D02*
X114301979Y-60856895D01*
X114301979Y-60856895D02*
X114225789Y-60818800D01*
X114225789Y-60818800D02*
X114187693Y-60742609D01*
X114187693Y-60742609D02*
X114187693Y-60437847D01*
X114187693Y-60437847D02*
X114225789Y-60361657D01*
X114225789Y-60361657D02*
X114301979Y-60323561D01*
X114301979Y-60323561D02*
X114454360Y-60323561D01*
X114454360Y-60323561D02*
X114530551Y-60361657D01*
X114530551Y-60361657D02*
X114568646Y-60437847D01*
X114568646Y-60437847D02*
X114568646Y-60514038D01*
X114568646Y-60514038D02*
X114187693Y-60590228D01*
X115025788Y-60856895D02*
X114949598Y-60818800D01*
X114949598Y-60818800D02*
X114911503Y-60742609D01*
X114911503Y-60742609D02*
X114911503Y-60056895D01*
X116397218Y-60780704D02*
X116359122Y-60818800D01*
X116359122Y-60818800D02*
X116244837Y-60856895D01*
X116244837Y-60856895D02*
X116168646Y-60856895D01*
X116168646Y-60856895D02*
X116054360Y-60818800D01*
X116054360Y-60818800D02*
X115978170Y-60742609D01*
X115978170Y-60742609D02*
X115940075Y-60666419D01*
X115940075Y-60666419D02*
X115901979Y-60514038D01*
X115901979Y-60514038D02*
X115901979Y-60399752D01*
X115901979Y-60399752D02*
X115940075Y-60247371D01*
X115940075Y-60247371D02*
X115978170Y-60171180D01*
X115978170Y-60171180D02*
X116054360Y-60094990D01*
X116054360Y-60094990D02*
X116168646Y-60056895D01*
X116168646Y-60056895D02*
X116244837Y-60056895D01*
X116244837Y-60056895D02*
X116359122Y-60094990D01*
X116359122Y-60094990D02*
X116397218Y-60133085D01*
X116740075Y-60856895D02*
X116740075Y-60056895D01*
X117082932Y-60856895D02*
X117082932Y-60437847D01*
X117082932Y-60437847D02*
X117044837Y-60361657D01*
X117044837Y-60361657D02*
X116968646Y-60323561D01*
X116968646Y-60323561D02*
X116854360Y-60323561D01*
X116854360Y-60323561D02*
X116778170Y-60361657D01*
X116778170Y-60361657D02*
X116740075Y-60399752D01*
X117768647Y-60818800D02*
X117692456Y-60856895D01*
X117692456Y-60856895D02*
X117540075Y-60856895D01*
X117540075Y-60856895D02*
X117463885Y-60818800D01*
X117463885Y-60818800D02*
X117425789Y-60742609D01*
X117425789Y-60742609D02*
X117425789Y-60437847D01*
X117425789Y-60437847D02*
X117463885Y-60361657D01*
X117463885Y-60361657D02*
X117540075Y-60323561D01*
X117540075Y-60323561D02*
X117692456Y-60323561D01*
X117692456Y-60323561D02*
X117768647Y-60361657D01*
X117768647Y-60361657D02*
X117806742Y-60437847D01*
X117806742Y-60437847D02*
X117806742Y-60514038D01*
X117806742Y-60514038D02*
X117425789Y-60590228D01*
X118149599Y-60323561D02*
X118149599Y-60856895D01*
X118149599Y-60399752D02*
X118187694Y-60361657D01*
X118187694Y-60361657D02*
X118263884Y-60323561D01*
X118263884Y-60323561D02*
X118378170Y-60323561D01*
X118378170Y-60323561D02*
X118454361Y-60361657D01*
X118454361Y-60361657D02*
X118492456Y-60437847D01*
X118492456Y-60437847D02*
X118492456Y-60856895D01*
X119444837Y-60818800D02*
X119559123Y-60856895D01*
X119559123Y-60856895D02*
X119749599Y-60856895D01*
X119749599Y-60856895D02*
X119825790Y-60818800D01*
X119825790Y-60818800D02*
X119863885Y-60780704D01*
X119863885Y-60780704D02*
X119901980Y-60704514D01*
X119901980Y-60704514D02*
X119901980Y-60628323D01*
X119901980Y-60628323D02*
X119863885Y-60552133D01*
X119863885Y-60552133D02*
X119825790Y-60514038D01*
X119825790Y-60514038D02*
X119749599Y-60475942D01*
X119749599Y-60475942D02*
X119597218Y-60437847D01*
X119597218Y-60437847D02*
X119521028Y-60399752D01*
X119521028Y-60399752D02*
X119482933Y-60361657D01*
X119482933Y-60361657D02*
X119444837Y-60285466D01*
X119444837Y-60285466D02*
X119444837Y-60209276D01*
X119444837Y-60209276D02*
X119482933Y-60133085D01*
X119482933Y-60133085D02*
X119521028Y-60094990D01*
X119521028Y-60094990D02*
X119597218Y-60056895D01*
X119597218Y-60056895D02*
X119787695Y-60056895D01*
X119787695Y-60056895D02*
X119901980Y-60094990D01*
X120549600Y-60818800D02*
X120473409Y-60856895D01*
X120473409Y-60856895D02*
X120321028Y-60856895D01*
X120321028Y-60856895D02*
X120244838Y-60818800D01*
X120244838Y-60818800D02*
X120206742Y-60742609D01*
X120206742Y-60742609D02*
X120206742Y-60437847D01*
X120206742Y-60437847D02*
X120244838Y-60361657D01*
X120244838Y-60361657D02*
X120321028Y-60323561D01*
X120321028Y-60323561D02*
X120473409Y-60323561D01*
X120473409Y-60323561D02*
X120549600Y-60361657D01*
X120549600Y-60361657D02*
X120587695Y-60437847D01*
X120587695Y-60437847D02*
X120587695Y-60514038D01*
X120587695Y-60514038D02*
X120206742Y-60590228D01*
X120930552Y-60323561D02*
X120930552Y-60856895D01*
X120930552Y-60399752D02*
X120968647Y-60361657D01*
X120968647Y-60361657D02*
X121044837Y-60323561D01*
X121044837Y-60323561D02*
X121159123Y-60323561D01*
X121159123Y-60323561D02*
X121235314Y-60361657D01*
X121235314Y-60361657D02*
X121273409Y-60437847D01*
X121273409Y-60437847D02*
X121273409Y-60856895D01*
X121616266Y-60818800D02*
X121692457Y-60856895D01*
X121692457Y-60856895D02*
X121844838Y-60856895D01*
X121844838Y-60856895D02*
X121921028Y-60818800D01*
X121921028Y-60818800D02*
X121959124Y-60742609D01*
X121959124Y-60742609D02*
X121959124Y-60704514D01*
X121959124Y-60704514D02*
X121921028Y-60628323D01*
X121921028Y-60628323D02*
X121844838Y-60590228D01*
X121844838Y-60590228D02*
X121730552Y-60590228D01*
X121730552Y-60590228D02*
X121654362Y-60552133D01*
X121654362Y-60552133D02*
X121616266Y-60475942D01*
X121616266Y-60475942D02*
X121616266Y-60437847D01*
X121616266Y-60437847D02*
X121654362Y-60361657D01*
X121654362Y-60361657D02*
X121730552Y-60323561D01*
X121730552Y-60323561D02*
X121844838Y-60323561D01*
X121844838Y-60323561D02*
X121921028Y-60361657D01*
X122416266Y-60856895D02*
X122340076Y-60818800D01*
X122340076Y-60818800D02*
X122301981Y-60780704D01*
X122301981Y-60780704D02*
X122263885Y-60704514D01*
X122263885Y-60704514D02*
X122263885Y-60475942D01*
X122263885Y-60475942D02*
X122301981Y-60399752D01*
X122301981Y-60399752D02*
X122340076Y-60361657D01*
X122340076Y-60361657D02*
X122416266Y-60323561D01*
X122416266Y-60323561D02*
X122530552Y-60323561D01*
X122530552Y-60323561D02*
X122606743Y-60361657D01*
X122606743Y-60361657D02*
X122644838Y-60399752D01*
X122644838Y-60399752D02*
X122682933Y-60475942D01*
X122682933Y-60475942D02*
X122682933Y-60704514D01*
X122682933Y-60704514D02*
X122644838Y-60780704D01*
X122644838Y-60780704D02*
X122606743Y-60818800D01*
X122606743Y-60818800D02*
X122530552Y-60856895D01*
X122530552Y-60856895D02*
X122416266Y-60856895D01*
X123025791Y-60856895D02*
X123025791Y-60323561D01*
X123025791Y-60475942D02*
X123063886Y-60399752D01*
X123063886Y-60399752D02*
X123101981Y-60361657D01*
X123101981Y-60361657D02*
X123178172Y-60323561D01*
X123178172Y-60323561D02*
X123254362Y-60323561D01*
X124587696Y-60780704D02*
X124549600Y-60818800D01*
X124549600Y-60818800D02*
X124435315Y-60856895D01*
X124435315Y-60856895D02*
X124359124Y-60856895D01*
X124359124Y-60856895D02*
X124244838Y-60818800D01*
X124244838Y-60818800D02*
X124168648Y-60742609D01*
X124168648Y-60742609D02*
X124130553Y-60666419D01*
X124130553Y-60666419D02*
X124092457Y-60514038D01*
X124092457Y-60514038D02*
X124092457Y-60399752D01*
X124092457Y-60399752D02*
X124130553Y-60247371D01*
X124130553Y-60247371D02*
X124168648Y-60171180D01*
X124168648Y-60171180D02*
X124244838Y-60094990D01*
X124244838Y-60094990D02*
X124359124Y-60056895D01*
X124359124Y-60056895D02*
X124435315Y-60056895D01*
X124435315Y-60056895D02*
X124549600Y-60094990D01*
X124549600Y-60094990D02*
X124587696Y-60133085D01*
X124930553Y-60856895D02*
X124930553Y-60323561D01*
X124930553Y-60056895D02*
X124892457Y-60094990D01*
X124892457Y-60094990D02*
X124930553Y-60133085D01*
X124930553Y-60133085D02*
X124968648Y-60094990D01*
X124968648Y-60094990D02*
X124930553Y-60056895D01*
X124930553Y-60056895D02*
X124930553Y-60133085D01*
X125311505Y-60856895D02*
X125311505Y-60323561D01*
X125311505Y-60475942D02*
X125349600Y-60399752D01*
X125349600Y-60399752D02*
X125387695Y-60361657D01*
X125387695Y-60361657D02*
X125463886Y-60323561D01*
X125463886Y-60323561D02*
X125540076Y-60323561D01*
X126149600Y-60818800D02*
X126073409Y-60856895D01*
X126073409Y-60856895D02*
X125921028Y-60856895D01*
X125921028Y-60856895D02*
X125844838Y-60818800D01*
X125844838Y-60818800D02*
X125806743Y-60780704D01*
X125806743Y-60780704D02*
X125768647Y-60704514D01*
X125768647Y-60704514D02*
X125768647Y-60475942D01*
X125768647Y-60475942D02*
X125806743Y-60399752D01*
X125806743Y-60399752D02*
X125844838Y-60361657D01*
X125844838Y-60361657D02*
X125921028Y-60323561D01*
X125921028Y-60323561D02*
X126073409Y-60323561D01*
X126073409Y-60323561D02*
X126149600Y-60361657D01*
X126835314Y-60323561D02*
X126835314Y-60856895D01*
X126492457Y-60323561D02*
X126492457Y-60742609D01*
X126492457Y-60742609D02*
X126530552Y-60818800D01*
X126530552Y-60818800D02*
X126606742Y-60856895D01*
X126606742Y-60856895D02*
X126721028Y-60856895D01*
X126721028Y-60856895D02*
X126797219Y-60818800D01*
X126797219Y-60818800D02*
X126835314Y-60780704D01*
X127216267Y-60856895D02*
X127216267Y-60323561D01*
X127216267Y-60056895D02*
X127178171Y-60094990D01*
X127178171Y-60094990D02*
X127216267Y-60133085D01*
X127216267Y-60133085D02*
X127254362Y-60094990D01*
X127254362Y-60094990D02*
X127216267Y-60056895D01*
X127216267Y-60056895D02*
X127216267Y-60133085D01*
X127482933Y-60323561D02*
X127787695Y-60323561D01*
X127597219Y-60056895D02*
X127597219Y-60742609D01*
X127597219Y-60742609D02*
X127635314Y-60818800D01*
X127635314Y-60818800D02*
X127711504Y-60856895D01*
X127711504Y-60856895D02*
X127787695Y-60856895D01*
X128587695Y-60323561D02*
X128778171Y-60856895D01*
X128778171Y-60856895D02*
X128968648Y-60323561D01*
X129692457Y-60856895D02*
X129235314Y-60856895D01*
X129463886Y-60856895D02*
X129463886Y-60056895D01*
X129463886Y-60056895D02*
X129387695Y-60171180D01*
X129387695Y-60171180D02*
X129311505Y-60247371D01*
X129311505Y-60247371D02*
X129235314Y-60285466D01*
X130035315Y-60780704D02*
X130073410Y-60818800D01*
X130073410Y-60818800D02*
X130035315Y-60856895D01*
X130035315Y-60856895D02*
X129997219Y-60818800D01*
X129997219Y-60818800D02*
X130035315Y-60780704D01*
X130035315Y-60780704D02*
X130035315Y-60856895D01*
X130568648Y-60056895D02*
X130644838Y-60056895D01*
X130644838Y-60056895D02*
X130721029Y-60094990D01*
X130721029Y-60094990D02*
X130759124Y-60133085D01*
X130759124Y-60133085D02*
X130797219Y-60209276D01*
X130797219Y-60209276D02*
X130835314Y-60361657D01*
X130835314Y-60361657D02*
X130835314Y-60552133D01*
X130835314Y-60552133D02*
X130797219Y-60704514D01*
X130797219Y-60704514D02*
X130759124Y-60780704D01*
X130759124Y-60780704D02*
X130721029Y-60818800D01*
X130721029Y-60818800D02*
X130644838Y-60856895D01*
X130644838Y-60856895D02*
X130568648Y-60856895D01*
X130568648Y-60856895D02*
X130492457Y-60818800D01*
X130492457Y-60818800D02*
X130454362Y-60780704D01*
X130454362Y-60780704D02*
X130416267Y-60704514D01*
X130416267Y-60704514D02*
X130378171Y-60552133D01*
X130378171Y-60552133D02*
X130378171Y-60361657D01*
X130378171Y-60361657D02*
X130416267Y-60209276D01*
X130416267Y-60209276D02*
X130454362Y-60133085D01*
X130454362Y-60133085D02*
X130492457Y-60094990D01*
X130492457Y-60094990D02*
X130568648Y-60056895D01*
D11*
X117817319Y-97281904D02*
X118626842Y-97281904D01*
X118626842Y-97281904D02*
X118722080Y-97234285D01*
X118722080Y-97234285D02*
X118769700Y-97186666D01*
X118769700Y-97186666D02*
X118817319Y-97091428D01*
X118817319Y-97091428D02*
X118817319Y-96900952D01*
X118817319Y-96900952D02*
X118769700Y-96805714D01*
X118769700Y-96805714D02*
X118722080Y-96758095D01*
X118722080Y-96758095D02*
X118626842Y-96710476D01*
X118626842Y-96710476D02*
X117817319Y-96710476D01*
X117817319Y-96329523D02*
X117817319Y-95710476D01*
X117817319Y-95710476D02*
X118198271Y-96043809D01*
X118198271Y-96043809D02*
X118198271Y-95900952D01*
X118198271Y-95900952D02*
X118245890Y-95805714D01*
X118245890Y-95805714D02*
X118293509Y-95758095D01*
X118293509Y-95758095D02*
X118388747Y-95710476D01*
X118388747Y-95710476D02*
X118626842Y-95710476D01*
X118626842Y-95710476D02*
X118722080Y-95758095D01*
X118722080Y-95758095D02*
X118769700Y-95805714D01*
X118769700Y-95805714D02*
X118817319Y-95900952D01*
X118817319Y-95900952D02*
X118817319Y-96186666D01*
X118817319Y-96186666D02*
X118769700Y-96281904D01*
X118769700Y-96281904D02*
X118722080Y-96329523D01*
X86432649Y-65494539D02*
X86432649Y-66304484D01*
X86432649Y-66304484D02*
X86480292Y-66399772D01*
X86480292Y-66399772D02*
X86527936Y-66447416D01*
X86527936Y-66447416D02*
X86623224Y-66495059D01*
X86623224Y-66495059D02*
X86813799Y-66495059D01*
X86813799Y-66495059D02*
X86909087Y-66447416D01*
X86909087Y-66447416D02*
X86956730Y-66399772D01*
X86956730Y-66399772D02*
X87004374Y-66304484D01*
X87004374Y-66304484D02*
X87004374Y-65494539D01*
X87433169Y-65589827D02*
X87480813Y-65542183D01*
X87480813Y-65542183D02*
X87576100Y-65494539D01*
X87576100Y-65494539D02*
X87814319Y-65494539D01*
X87814319Y-65494539D02*
X87909607Y-65542183D01*
X87909607Y-65542183D02*
X87957251Y-65589827D01*
X87957251Y-65589827D02*
X88004894Y-65685115D01*
X88004894Y-65685115D02*
X88004894Y-65780402D01*
X88004894Y-65780402D02*
X87957251Y-65923334D01*
X87957251Y-65923334D02*
X87385525Y-66495059D01*
X87385525Y-66495059D02*
X88004894Y-66495059D01*
X62614783Y-99176333D02*
X63181450Y-99176333D01*
X63181450Y-99176333D02*
X63248116Y-99143000D01*
X63248116Y-99143000D02*
X63281450Y-99109666D01*
X63281450Y-99109666D02*
X63314783Y-99043000D01*
X63314783Y-99043000D02*
X63314783Y-98909666D01*
X63314783Y-98909666D02*
X63281450Y-98843000D01*
X63281450Y-98843000D02*
X63248116Y-98809666D01*
X63248116Y-98809666D02*
X63181450Y-98776333D01*
X63181450Y-98776333D02*
X62614783Y-98776333D01*
X63314783Y-98076333D02*
X63314783Y-98476333D01*
X63314783Y-98276333D02*
X62614783Y-98276333D01*
X62614783Y-98276333D02*
X62714783Y-98343000D01*
X62714783Y-98343000D02*
X62781450Y-98409667D01*
X62781450Y-98409667D02*
X62814783Y-98476333D01*
X103973333Y-102944819D02*
X103640000Y-102468628D01*
X103401905Y-102944819D02*
X103401905Y-101944819D01*
X103401905Y-101944819D02*
X103782857Y-101944819D01*
X103782857Y-101944819D02*
X103878095Y-101992438D01*
X103878095Y-101992438D02*
X103925714Y-102040057D01*
X103925714Y-102040057D02*
X103973333Y-102135295D01*
X103973333Y-102135295D02*
X103973333Y-102278152D01*
X103973333Y-102278152D02*
X103925714Y-102373390D01*
X103925714Y-102373390D02*
X103878095Y-102421009D01*
X103878095Y-102421009D02*
X103782857Y-102468628D01*
X103782857Y-102468628D02*
X103401905Y-102468628D01*
X104354286Y-102040057D02*
X104401905Y-101992438D01*
X104401905Y-101992438D02*
X104497143Y-101944819D01*
X104497143Y-101944819D02*
X104735238Y-101944819D01*
X104735238Y-101944819D02*
X104830476Y-101992438D01*
X104830476Y-101992438D02*
X104878095Y-102040057D01*
X104878095Y-102040057D02*
X104925714Y-102135295D01*
X104925714Y-102135295D02*
X104925714Y-102230533D01*
X104925714Y-102230533D02*
X104878095Y-102373390D01*
X104878095Y-102373390D02*
X104306667Y-102944819D01*
X104306667Y-102944819D02*
X104925714Y-102944819D01*
X77033333Y-62304819D02*
X76700000Y-61828628D01*
X76461905Y-62304819D02*
X76461905Y-61304819D01*
X76461905Y-61304819D02*
X76842857Y-61304819D01*
X76842857Y-61304819D02*
X76938095Y-61352438D01*
X76938095Y-61352438D02*
X76985714Y-61400057D01*
X76985714Y-61400057D02*
X77033333Y-61495295D01*
X77033333Y-61495295D02*
X77033333Y-61638152D01*
X77033333Y-61638152D02*
X76985714Y-61733390D01*
X76985714Y-61733390D02*
X76938095Y-61781009D01*
X76938095Y-61781009D02*
X76842857Y-61828628D01*
X76842857Y-61828628D02*
X76461905Y-61828628D01*
X77985714Y-62304819D02*
X77414286Y-62304819D01*
X77700000Y-62304819D02*
X77700000Y-61304819D01*
X77700000Y-61304819D02*
X77604762Y-61447676D01*
X77604762Y-61447676D02*
X77509524Y-61542914D01*
X77509524Y-61542914D02*
X77414286Y-61590533D01*
X131099580Y-106846666D02*
X131147200Y-106894285D01*
X131147200Y-106894285D02*
X131194819Y-107037142D01*
X131194819Y-107037142D02*
X131194819Y-107132380D01*
X131194819Y-107132380D02*
X131147200Y-107275237D01*
X131147200Y-107275237D02*
X131051961Y-107370475D01*
X131051961Y-107370475D02*
X130956723Y-107418094D01*
X130956723Y-107418094D02*
X130766247Y-107465713D01*
X130766247Y-107465713D02*
X130623390Y-107465713D01*
X130623390Y-107465713D02*
X130432914Y-107418094D01*
X130432914Y-107418094D02*
X130337676Y-107370475D01*
X130337676Y-107370475D02*
X130242438Y-107275237D01*
X130242438Y-107275237D02*
X130194819Y-107132380D01*
X130194819Y-107132380D02*
X130194819Y-107037142D01*
X130194819Y-107037142D02*
X130242438Y-106894285D01*
X130242438Y-106894285D02*
X130290057Y-106846666D01*
X130194819Y-106513332D02*
X130194819Y-105894285D01*
X130194819Y-105894285D02*
X130575771Y-106227618D01*
X130575771Y-106227618D02*
X130575771Y-106084761D01*
X130575771Y-106084761D02*
X130623390Y-105989523D01*
X130623390Y-105989523D02*
X130671009Y-105941904D01*
X130671009Y-105941904D02*
X130766247Y-105894285D01*
X130766247Y-105894285D02*
X131004342Y-105894285D01*
X131004342Y-105894285D02*
X131099580Y-105941904D01*
X131099580Y-105941904D02*
X131147200Y-105989523D01*
X131147200Y-105989523D02*
X131194819Y-106084761D01*
X131194819Y-106084761D02*
X131194819Y-106370475D01*
X131194819Y-106370475D02*
X131147200Y-106465713D01*
X131147200Y-106465713D02*
X131099580Y-106513332D01*
X113093333Y-104339580D02*
X113045714Y-104387200D01*
X113045714Y-104387200D02*
X112902857Y-104434819D01*
X112902857Y-104434819D02*
X112807619Y-104434819D01*
X112807619Y-104434819D02*
X112664762Y-104387200D01*
X112664762Y-104387200D02*
X112569524Y-104291961D01*
X112569524Y-104291961D02*
X112521905Y-104196723D01*
X112521905Y-104196723D02*
X112474286Y-104006247D01*
X112474286Y-104006247D02*
X112474286Y-103863390D01*
X112474286Y-103863390D02*
X112521905Y-103672914D01*
X112521905Y-103672914D02*
X112569524Y-103577676D01*
X112569524Y-103577676D02*
X112664762Y-103482438D01*
X112664762Y-103482438D02*
X112807619Y-103434819D01*
X112807619Y-103434819D02*
X112902857Y-103434819D01*
X112902857Y-103434819D02*
X113045714Y-103482438D01*
X113045714Y-103482438D02*
X113093333Y-103530057D01*
X113474286Y-103530057D02*
X113521905Y-103482438D01*
X113521905Y-103482438D02*
X113617143Y-103434819D01*
X113617143Y-103434819D02*
X113855238Y-103434819D01*
X113855238Y-103434819D02*
X113950476Y-103482438D01*
X113950476Y-103482438D02*
X113998095Y-103530057D01*
X113998095Y-103530057D02*
X114045714Y-103625295D01*
X114045714Y-103625295D02*
X114045714Y-103720533D01*
X114045714Y-103720533D02*
X113998095Y-103863390D01*
X113998095Y-103863390D02*
X113426667Y-104434819D01*
X113426667Y-104434819D02*
X114045714Y-104434819D01*
X105013333Y-97039580D02*
X104965714Y-97087200D01*
X104965714Y-97087200D02*
X104822857Y-97134819D01*
X104822857Y-97134819D02*
X104727619Y-97134819D01*
X104727619Y-97134819D02*
X104584762Y-97087200D01*
X104584762Y-97087200D02*
X104489524Y-96991961D01*
X104489524Y-96991961D02*
X104441905Y-96896723D01*
X104441905Y-96896723D02*
X104394286Y-96706247D01*
X104394286Y-96706247D02*
X104394286Y-96563390D01*
X104394286Y-96563390D02*
X104441905Y-96372914D01*
X104441905Y-96372914D02*
X104489524Y-96277676D01*
X104489524Y-96277676D02*
X104584762Y-96182438D01*
X104584762Y-96182438D02*
X104727619Y-96134819D01*
X104727619Y-96134819D02*
X104822857Y-96134819D01*
X104822857Y-96134819D02*
X104965714Y-96182438D01*
X104965714Y-96182438D02*
X105013333Y-96230057D01*
X105965714Y-97134819D02*
X105394286Y-97134819D01*
X105680000Y-97134819D02*
X105680000Y-96134819D01*
X105680000Y-96134819D02*
X105584762Y-96277676D01*
X105584762Y-96277676D02*
X105489524Y-96372914D01*
X105489524Y-96372914D02*
X105394286Y-96420533D01*
D12*
%TO.C,U3*%
X116220000Y-96810000D02*
G75*
G02*
X116020000Y-96810000I-100000J0D01*
G01*
X116020000Y-96810000D02*
G75*
G02*
X116220000Y-96810000I100000J0D01*
G01*
D13*
X116870000Y-97810000D02*
X116575000Y-97810000D01*
X116870000Y-97810000D02*
X116870000Y-98105000D01*
X112870000Y-97810000D02*
X112870000Y-98105000D01*
X112870000Y-97810000D02*
X113165000Y-97810000D01*
X112870000Y-101810000D02*
X113165000Y-101810000D01*
X112870000Y-101810000D02*
X112870000Y-101515000D01*
X116870000Y-101810000D02*
X116870000Y-101515000D01*
X116870000Y-101810000D02*
X116575000Y-101810000D01*
%TO.C,U2*%
X85180000Y-83805000D02*
X101180000Y-83805000D01*
X112180000Y-83805000D02*
X128180000Y-83805000D01*
X129180000Y-70005000D02*
X128180000Y-70005000D01*
X128180000Y-70005000D02*
X112180000Y-70005000D01*
X112180000Y-70005000D02*
X101180000Y-70005000D01*
X101180000Y-70005000D02*
X85180000Y-70005000D01*
X85180000Y-70005000D02*
X84180000Y-70005000D01*
X84180000Y-70005000D02*
X84180000Y-68805000D01*
X84180000Y-68805000D02*
X129180000Y-68805000D01*
X129180000Y-68805000D02*
X129180000Y-70005000D01*
X85180000Y-70005000D02*
X85180000Y-83805000D01*
X128180000Y-70005000D02*
X128180000Y-83805000D01*
X101180000Y-70005000D02*
X101180000Y-83805000D01*
X112180000Y-70005000D02*
X112180000Y-83805000D01*
%TO.C,U1*%
X84779250Y-107977500D02*
X84779250Y-90177500D01*
X84779250Y-90177500D02*
X63779250Y-90177500D01*
X63779250Y-90177500D02*
X63779250Y-107305959D01*
X63779250Y-107305959D02*
X64450750Y-107977500D01*
X64450750Y-107977500D02*
X84779250Y-107977500D01*
X62355250Y-103577500D02*
X62355250Y-94582500D01*
X62355250Y-94582500D02*
X69707250Y-94582500D01*
X69707250Y-94582500D02*
X69707250Y-103581500D01*
X69707250Y-103581500D02*
X62354250Y-103581500D01*
D14*
%TO.C,R2*%
X103912936Y-103405000D02*
X104367064Y-103405000D01*
X103912936Y-104875000D02*
X104367064Y-104875000D01*
%TO.C,R1*%
X76972936Y-62765000D02*
X77427064Y-62765000D01*
X76972936Y-64235000D02*
X77427064Y-64235000D01*
%TO.C,C3*%
X129475000Y-99225000D02*
X129475000Y-99600000D01*
X129662500Y-99412500D02*
X129287500Y-99412500D01*
X129100000Y-100029437D02*
X129800000Y-100729437D01*
X126980000Y-100029437D02*
X126280000Y-100729437D01*
X129800000Y-100729437D02*
X129800000Y-103360000D01*
X126280000Y-100729437D02*
X126280000Y-103360000D01*
X129800000Y-103360000D02*
X129100000Y-103360000D01*
X126280000Y-103360000D02*
X126980000Y-103360000D01*
%TO.C,C2*%
X110885000Y-105245000D02*
X111260000Y-105245000D01*
X111072500Y-105057500D02*
X111072500Y-105432500D01*
X111689437Y-105620000D02*
X112389437Y-104920000D01*
X111689437Y-107740000D02*
X112389437Y-108440000D01*
X112389437Y-104920000D02*
X115020000Y-104920000D01*
X112389437Y-108440000D02*
X115020000Y-108440000D01*
X115020000Y-104920000D02*
X115020000Y-105620000D01*
X115020000Y-108440000D02*
X115020000Y-107740000D01*
%TO.C,C1*%
X107555000Y-95415000D02*
X107180000Y-95415000D01*
X107367500Y-95602500D02*
X107367500Y-95227500D01*
X106750563Y-95040000D02*
X106050563Y-95740000D01*
X106750563Y-92920000D02*
X106050563Y-92220000D01*
X106050563Y-95740000D02*
X103420000Y-95740000D01*
X106050563Y-92220000D02*
X103420000Y-92220000D01*
X103420000Y-95740000D02*
X103420000Y-95040000D01*
X103420000Y-92220000D02*
X103420000Y-92920000D01*
%TD*%
M02*
