M48
; DRILL file {KiCad 8.0.8} date 2025-02-26T19:15:01-0800
; FORMAT={-:-/ absolute / inch / decimal}
; #@! TF.CreationDate,2025-02-26T19:15:01-08:00
; #@! TF.GenerationSoftware,Kicad,Pcbnew,8.0.8
; #@! TF.FileFunction,Plated,1,2,PTH
FMAT,2
INCH
; #@! TA.AperFunction,Plated,PTH,ComponentDrill
T1C0.0295
; #@! TA.AperFunction,Plated,PTH,ComponentDrill
T2C0.0315
; #@! TA.AperFunction,Plated,PTH,ComponentDrill
T3C0.0335
; #@! TA.AperFunction,Plated,PTH,ComponentDrill
T4C0.0354
; #@! TA.AperFunction,Plated,PTH,ComponentDrill
T5C0.0374
; #@! TA.AperFunction,Plated,PTH,ViaDrill
T6C0.0400
; #@! TA.AperFunction,Plated,PTH,ComponentDrill
T7C0.0400
%
G90
G05
T1
X2.7213Y-3.0
X2.8Y-3.0
T2
X3.2Y-2.9
X3.4Y-3.9
X3.8Y-2.9
X4.0Y-3.9
T3
X4.35Y-2.75
X4.35Y-3.65
X4.65Y-2.75
X4.65Y-3.65
T4
X3.4Y-2.5
X3.4Y-2.6
X4.1Y-4.2
X4.2Y-4.2
T5
X2.7Y-2.6
X2.7984Y-2.6
X2.8969Y-2.6
T6
X2.6Y-3.6
X2.7Y-3.7
X2.9Y-4.0
X3.1Y-3.8
X3.3Y-4.0
X3.5Y-3.6
X3.6Y-3.7
X4.2Y-3.8
T7
X2.6Y-3.5
X2.6Y-4.1
X2.7Y-3.5
X2.7Y-4.1
X2.8Y-3.5
X2.8Y-4.1
X2.9Y-3.5
X2.9Y-4.1
X3.0Y-3.5
X3.0Y-4.1
X3.1Y-3.5
X3.1Y-4.1
X3.2Y-3.5
X3.2Y-4.1
M30
