%TF.GenerationSoftware,KiCad,Pcbnew,8.0.8*%
%TF.CreationDate,2025-03-02T00:43:29-07:00*%
%TF.ProjectId,techin514-final-project,74656368-696e-4353-9134-2d66696e616c,rev?*%
%TF.SameCoordinates,Original*%
%TF.FileFunction,Legend,Top*%
%TF.FilePolarity,Positive*%
%FSLAX46Y46*%
G04 Gerber Fmt 4.6, Leading zero omitted, Abs format (unit mm)*
G04 Created by KiCad (PCBNEW 8.0.8) date 2025-03-02 00:43:29*
%MOMM*%
%LPD*%
G01*
G04 APERTURE LIST*
%ADD10C,0.200000*%
%ADD11C,0.150000*%
%ADD12C,0.100000*%
%ADD13C,0.120000*%
G04 APERTURE END LIST*
D10*
X104509673Y-63342742D02*
X104509673Y-62142742D01*
X104509673Y-62714171D02*
X105081101Y-62714171D01*
X105081101Y-63342742D02*
X105081101Y-62142742D01*
X105985863Y-63342742D02*
X105985863Y-62714171D01*
X105985863Y-62714171D02*
X105938244Y-62599885D01*
X105938244Y-62599885D02*
X105843006Y-62542742D01*
X105843006Y-62542742D02*
X105652530Y-62542742D01*
X105652530Y-62542742D02*
X105557292Y-62599885D01*
X105985863Y-63285600D02*
X105890625Y-63342742D01*
X105890625Y-63342742D02*
X105652530Y-63342742D01*
X105652530Y-63342742D02*
X105557292Y-63285600D01*
X105557292Y-63285600D02*
X105509673Y-63171314D01*
X105509673Y-63171314D02*
X105509673Y-63057028D01*
X105509673Y-63057028D02*
X105557292Y-62942742D01*
X105557292Y-62942742D02*
X105652530Y-62885600D01*
X105652530Y-62885600D02*
X105890625Y-62885600D01*
X105890625Y-62885600D02*
X105985863Y-62828457D01*
X106366816Y-62542742D02*
X106890625Y-62542742D01*
X106890625Y-62542742D02*
X106366816Y-63342742D01*
X106366816Y-63342742D02*
X106890625Y-63342742D01*
X107652530Y-63285600D02*
X107557292Y-63342742D01*
X107557292Y-63342742D02*
X107366816Y-63342742D01*
X107366816Y-63342742D02*
X107271578Y-63285600D01*
X107271578Y-63285600D02*
X107223959Y-63171314D01*
X107223959Y-63171314D02*
X107223959Y-62714171D01*
X107223959Y-62714171D02*
X107271578Y-62599885D01*
X107271578Y-62599885D02*
X107366816Y-62542742D01*
X107366816Y-62542742D02*
X107557292Y-62542742D01*
X107557292Y-62542742D02*
X107652530Y-62599885D01*
X107652530Y-62599885D02*
X107700149Y-62714171D01*
X107700149Y-62714171D02*
X107700149Y-62828457D01*
X107700149Y-62828457D02*
X107223959Y-62942742D01*
X108271578Y-63342742D02*
X108176340Y-63285600D01*
X108176340Y-63285600D02*
X108128721Y-63171314D01*
X108128721Y-63171314D02*
X108128721Y-62142742D01*
X109985864Y-63228457D02*
X109938245Y-63285600D01*
X109938245Y-63285600D02*
X109795388Y-63342742D01*
X109795388Y-63342742D02*
X109700150Y-63342742D01*
X109700150Y-63342742D02*
X109557293Y-63285600D01*
X109557293Y-63285600D02*
X109462055Y-63171314D01*
X109462055Y-63171314D02*
X109414436Y-63057028D01*
X109414436Y-63057028D02*
X109366817Y-62828457D01*
X109366817Y-62828457D02*
X109366817Y-62657028D01*
X109366817Y-62657028D02*
X109414436Y-62428457D01*
X109414436Y-62428457D02*
X109462055Y-62314171D01*
X109462055Y-62314171D02*
X109557293Y-62199885D01*
X109557293Y-62199885D02*
X109700150Y-62142742D01*
X109700150Y-62142742D02*
X109795388Y-62142742D01*
X109795388Y-62142742D02*
X109938245Y-62199885D01*
X109938245Y-62199885D02*
X109985864Y-62257028D01*
X110414436Y-63342742D02*
X110414436Y-62142742D01*
X110843007Y-63342742D02*
X110843007Y-62714171D01*
X110843007Y-62714171D02*
X110795388Y-62599885D01*
X110795388Y-62599885D02*
X110700150Y-62542742D01*
X110700150Y-62542742D02*
X110557293Y-62542742D01*
X110557293Y-62542742D02*
X110462055Y-62599885D01*
X110462055Y-62599885D02*
X110414436Y-62657028D01*
X111700150Y-63285600D02*
X111604912Y-63342742D01*
X111604912Y-63342742D02*
X111414436Y-63342742D01*
X111414436Y-63342742D02*
X111319198Y-63285600D01*
X111319198Y-63285600D02*
X111271579Y-63171314D01*
X111271579Y-63171314D02*
X111271579Y-62714171D01*
X111271579Y-62714171D02*
X111319198Y-62599885D01*
X111319198Y-62599885D02*
X111414436Y-62542742D01*
X111414436Y-62542742D02*
X111604912Y-62542742D01*
X111604912Y-62542742D02*
X111700150Y-62599885D01*
X111700150Y-62599885D02*
X111747769Y-62714171D01*
X111747769Y-62714171D02*
X111747769Y-62828457D01*
X111747769Y-62828457D02*
X111271579Y-62942742D01*
X112176341Y-62542742D02*
X112176341Y-63342742D01*
X112176341Y-62657028D02*
X112223960Y-62599885D01*
X112223960Y-62599885D02*
X112319198Y-62542742D01*
X112319198Y-62542742D02*
X112462055Y-62542742D01*
X112462055Y-62542742D02*
X112557293Y-62599885D01*
X112557293Y-62599885D02*
X112604912Y-62714171D01*
X112604912Y-62714171D02*
X112604912Y-63342742D01*
X113843008Y-63342742D02*
X113843008Y-62142742D01*
X113843008Y-62142742D02*
X114081103Y-62142742D01*
X114081103Y-62142742D02*
X114223960Y-62199885D01*
X114223960Y-62199885D02*
X114319198Y-62314171D01*
X114319198Y-62314171D02*
X114366817Y-62428457D01*
X114366817Y-62428457D02*
X114414436Y-62657028D01*
X114414436Y-62657028D02*
X114414436Y-62828457D01*
X114414436Y-62828457D02*
X114366817Y-63057028D01*
X114366817Y-63057028D02*
X114319198Y-63171314D01*
X114319198Y-63171314D02*
X114223960Y-63285600D01*
X114223960Y-63285600D02*
X114081103Y-63342742D01*
X114081103Y-63342742D02*
X113843008Y-63342742D01*
X114843008Y-63342742D02*
X114843008Y-62542742D01*
X114843008Y-62142742D02*
X114795389Y-62199885D01*
X114795389Y-62199885D02*
X114843008Y-62257028D01*
X114843008Y-62257028D02*
X114890627Y-62199885D01*
X114890627Y-62199885D02*
X114843008Y-62142742D01*
X114843008Y-62142742D02*
X114843008Y-62257028D01*
X115271579Y-63285600D02*
X115366817Y-63342742D01*
X115366817Y-63342742D02*
X115557293Y-63342742D01*
X115557293Y-63342742D02*
X115652531Y-63285600D01*
X115652531Y-63285600D02*
X115700150Y-63171314D01*
X115700150Y-63171314D02*
X115700150Y-63114171D01*
X115700150Y-63114171D02*
X115652531Y-62999885D01*
X115652531Y-62999885D02*
X115557293Y-62942742D01*
X115557293Y-62942742D02*
X115414436Y-62942742D01*
X115414436Y-62942742D02*
X115319198Y-62885600D01*
X115319198Y-62885600D02*
X115271579Y-62771314D01*
X115271579Y-62771314D02*
X115271579Y-62714171D01*
X115271579Y-62714171D02*
X115319198Y-62599885D01*
X115319198Y-62599885D02*
X115414436Y-62542742D01*
X115414436Y-62542742D02*
X115557293Y-62542742D01*
X115557293Y-62542742D02*
X115652531Y-62599885D01*
X116128722Y-62542742D02*
X116128722Y-63742742D01*
X116128722Y-62599885D02*
X116223960Y-62542742D01*
X116223960Y-62542742D02*
X116414436Y-62542742D01*
X116414436Y-62542742D02*
X116509674Y-62599885D01*
X116509674Y-62599885D02*
X116557293Y-62657028D01*
X116557293Y-62657028D02*
X116604912Y-62771314D01*
X116604912Y-62771314D02*
X116604912Y-63114171D01*
X116604912Y-63114171D02*
X116557293Y-63228457D01*
X116557293Y-63228457D02*
X116509674Y-63285600D01*
X116509674Y-63285600D02*
X116414436Y-63342742D01*
X116414436Y-63342742D02*
X116223960Y-63342742D01*
X116223960Y-63342742D02*
X116128722Y-63285600D01*
X117176341Y-63342742D02*
X117081103Y-63285600D01*
X117081103Y-63285600D02*
X117033484Y-63171314D01*
X117033484Y-63171314D02*
X117033484Y-62142742D01*
X117985865Y-63342742D02*
X117985865Y-62714171D01*
X117985865Y-62714171D02*
X117938246Y-62599885D01*
X117938246Y-62599885D02*
X117843008Y-62542742D01*
X117843008Y-62542742D02*
X117652532Y-62542742D01*
X117652532Y-62542742D02*
X117557294Y-62599885D01*
X117985865Y-63285600D02*
X117890627Y-63342742D01*
X117890627Y-63342742D02*
X117652532Y-63342742D01*
X117652532Y-63342742D02*
X117557294Y-63285600D01*
X117557294Y-63285600D02*
X117509675Y-63171314D01*
X117509675Y-63171314D02*
X117509675Y-63057028D01*
X117509675Y-63057028D02*
X117557294Y-62942742D01*
X117557294Y-62942742D02*
X117652532Y-62885600D01*
X117652532Y-62885600D02*
X117890627Y-62885600D01*
X117890627Y-62885600D02*
X117985865Y-62828457D01*
X118366818Y-62542742D02*
X118604913Y-63342742D01*
X118843008Y-62542742D02*
X118604913Y-63342742D01*
X118604913Y-63342742D02*
X118509675Y-63628457D01*
X118509675Y-63628457D02*
X118462056Y-63685600D01*
X118462056Y-63685600D02*
X118366818Y-63742742D01*
X120557294Y-63228457D02*
X120509675Y-63285600D01*
X120509675Y-63285600D02*
X120366818Y-63342742D01*
X120366818Y-63342742D02*
X120271580Y-63342742D01*
X120271580Y-63342742D02*
X120128723Y-63285600D01*
X120128723Y-63285600D02*
X120033485Y-63171314D01*
X120033485Y-63171314D02*
X119985866Y-63057028D01*
X119985866Y-63057028D02*
X119938247Y-62828457D01*
X119938247Y-62828457D02*
X119938247Y-62657028D01*
X119938247Y-62657028D02*
X119985866Y-62428457D01*
X119985866Y-62428457D02*
X120033485Y-62314171D01*
X120033485Y-62314171D02*
X120128723Y-62199885D01*
X120128723Y-62199885D02*
X120271580Y-62142742D01*
X120271580Y-62142742D02*
X120366818Y-62142742D01*
X120366818Y-62142742D02*
X120509675Y-62199885D01*
X120509675Y-62199885D02*
X120557294Y-62257028D01*
X120985866Y-63342742D02*
X120985866Y-62542742D01*
X120985866Y-62142742D02*
X120938247Y-62199885D01*
X120938247Y-62199885D02*
X120985866Y-62257028D01*
X120985866Y-62257028D02*
X121033485Y-62199885D01*
X121033485Y-62199885D02*
X120985866Y-62142742D01*
X120985866Y-62142742D02*
X120985866Y-62257028D01*
X121462056Y-63342742D02*
X121462056Y-62542742D01*
X121462056Y-62771314D02*
X121509675Y-62657028D01*
X121509675Y-62657028D02*
X121557294Y-62599885D01*
X121557294Y-62599885D02*
X121652532Y-62542742D01*
X121652532Y-62542742D02*
X121747770Y-62542742D01*
X122509675Y-63285600D02*
X122414437Y-63342742D01*
X122414437Y-63342742D02*
X122223961Y-63342742D01*
X122223961Y-63342742D02*
X122128723Y-63285600D01*
X122128723Y-63285600D02*
X122081104Y-63228457D01*
X122081104Y-63228457D02*
X122033485Y-63114171D01*
X122033485Y-63114171D02*
X122033485Y-62771314D01*
X122033485Y-62771314D02*
X122081104Y-62657028D01*
X122081104Y-62657028D02*
X122128723Y-62599885D01*
X122128723Y-62599885D02*
X122223961Y-62542742D01*
X122223961Y-62542742D02*
X122414437Y-62542742D01*
X122414437Y-62542742D02*
X122509675Y-62599885D01*
X123366818Y-62542742D02*
X123366818Y-63342742D01*
X122938247Y-62542742D02*
X122938247Y-63171314D01*
X122938247Y-63171314D02*
X122985866Y-63285600D01*
X122985866Y-63285600D02*
X123081104Y-63342742D01*
X123081104Y-63342742D02*
X123223961Y-63342742D01*
X123223961Y-63342742D02*
X123319199Y-63285600D01*
X123319199Y-63285600D02*
X123366818Y-63228457D01*
X123843009Y-63342742D02*
X123843009Y-62542742D01*
X123843009Y-62142742D02*
X123795390Y-62199885D01*
X123795390Y-62199885D02*
X123843009Y-62257028D01*
X123843009Y-62257028D02*
X123890628Y-62199885D01*
X123890628Y-62199885D02*
X123843009Y-62142742D01*
X123843009Y-62142742D02*
X123843009Y-62257028D01*
X124176342Y-62542742D02*
X124557294Y-62542742D01*
X124319199Y-62142742D02*
X124319199Y-63171314D01*
X124319199Y-63171314D02*
X124366818Y-63285600D01*
X124366818Y-63285600D02*
X124462056Y-63342742D01*
X124462056Y-63342742D02*
X124557294Y-63342742D01*
X125557295Y-62542742D02*
X125795390Y-63342742D01*
X125795390Y-63342742D02*
X126033485Y-62542742D01*
X126366819Y-62257028D02*
X126414438Y-62199885D01*
X126414438Y-62199885D02*
X126509676Y-62142742D01*
X126509676Y-62142742D02*
X126747771Y-62142742D01*
X126747771Y-62142742D02*
X126843009Y-62199885D01*
X126843009Y-62199885D02*
X126890628Y-62257028D01*
X126890628Y-62257028D02*
X126938247Y-62371314D01*
X126938247Y-62371314D02*
X126938247Y-62485600D01*
X126938247Y-62485600D02*
X126890628Y-62657028D01*
X126890628Y-62657028D02*
X126319200Y-63342742D01*
X126319200Y-63342742D02*
X126938247Y-63342742D01*
X127366819Y-63228457D02*
X127414438Y-63285600D01*
X127414438Y-63285600D02*
X127366819Y-63342742D01*
X127366819Y-63342742D02*
X127319200Y-63285600D01*
X127319200Y-63285600D02*
X127366819Y-63228457D01*
X127366819Y-63228457D02*
X127366819Y-63342742D01*
X128033485Y-62142742D02*
X128128723Y-62142742D01*
X128128723Y-62142742D02*
X128223961Y-62199885D01*
X128223961Y-62199885D02*
X128271580Y-62257028D01*
X128271580Y-62257028D02*
X128319199Y-62371314D01*
X128319199Y-62371314D02*
X128366818Y-62599885D01*
X128366818Y-62599885D02*
X128366818Y-62885600D01*
X128366818Y-62885600D02*
X128319199Y-63114171D01*
X128319199Y-63114171D02*
X128271580Y-63228457D01*
X128271580Y-63228457D02*
X128223961Y-63285600D01*
X128223961Y-63285600D02*
X128128723Y-63342742D01*
X128128723Y-63342742D02*
X128033485Y-63342742D01*
X128033485Y-63342742D02*
X127938247Y-63285600D01*
X127938247Y-63285600D02*
X127890628Y-63228457D01*
X127890628Y-63228457D02*
X127843009Y-63114171D01*
X127843009Y-63114171D02*
X127795390Y-62885600D01*
X127795390Y-62885600D02*
X127795390Y-62599885D01*
X127795390Y-62599885D02*
X127843009Y-62371314D01*
X127843009Y-62371314D02*
X127890628Y-62257028D01*
X127890628Y-62257028D02*
X127938247Y-62199885D01*
X127938247Y-62199885D02*
X128033485Y-62142742D01*
D11*
X90106666Y-77834819D02*
X90106666Y-78549104D01*
X90106666Y-78549104D02*
X90059047Y-78691961D01*
X90059047Y-78691961D02*
X89963809Y-78787200D01*
X89963809Y-78787200D02*
X89820952Y-78834819D01*
X89820952Y-78834819D02*
X89725714Y-78834819D01*
X91106666Y-78834819D02*
X90535238Y-78834819D01*
X90820952Y-78834819D02*
X90820952Y-77834819D01*
X90820952Y-77834819D02*
X90725714Y-77977676D01*
X90725714Y-77977676D02*
X90630476Y-78072914D01*
X90630476Y-78072914D02*
X90535238Y-78120533D01*
X104671905Y-103174819D02*
X104671905Y-102174819D01*
X104671905Y-102174819D02*
X104910000Y-102174819D01*
X104910000Y-102174819D02*
X105052857Y-102222438D01*
X105052857Y-102222438D02*
X105148095Y-102317676D01*
X105148095Y-102317676D02*
X105195714Y-102412914D01*
X105195714Y-102412914D02*
X105243333Y-102603390D01*
X105243333Y-102603390D02*
X105243333Y-102746247D01*
X105243333Y-102746247D02*
X105195714Y-102936723D01*
X105195714Y-102936723D02*
X105148095Y-103031961D01*
X105148095Y-103031961D02*
X105052857Y-103127200D01*
X105052857Y-103127200D02*
X104910000Y-103174819D01*
X104910000Y-103174819D02*
X104671905Y-103174819D01*
X105624286Y-102270057D02*
X105671905Y-102222438D01*
X105671905Y-102222438D02*
X105767143Y-102174819D01*
X105767143Y-102174819D02*
X106005238Y-102174819D01*
X106005238Y-102174819D02*
X106100476Y-102222438D01*
X106100476Y-102222438D02*
X106148095Y-102270057D01*
X106148095Y-102270057D02*
X106195714Y-102365295D01*
X106195714Y-102365295D02*
X106195714Y-102460533D01*
X106195714Y-102460533D02*
X106148095Y-102603390D01*
X106148095Y-102603390D02*
X105576667Y-103174819D01*
X105576667Y-103174819D02*
X106195714Y-103174819D01*
X69746667Y-69247200D02*
X69889524Y-69294819D01*
X69889524Y-69294819D02*
X70127619Y-69294819D01*
X70127619Y-69294819D02*
X70222857Y-69247200D01*
X70222857Y-69247200D02*
X70270476Y-69199580D01*
X70270476Y-69199580D02*
X70318095Y-69104342D01*
X70318095Y-69104342D02*
X70318095Y-69009104D01*
X70318095Y-69009104D02*
X70270476Y-68913866D01*
X70270476Y-68913866D02*
X70222857Y-68866247D01*
X70222857Y-68866247D02*
X70127619Y-68818628D01*
X70127619Y-68818628D02*
X69937143Y-68771009D01*
X69937143Y-68771009D02*
X69841905Y-68723390D01*
X69841905Y-68723390D02*
X69794286Y-68675771D01*
X69794286Y-68675771D02*
X69746667Y-68580533D01*
X69746667Y-68580533D02*
X69746667Y-68485295D01*
X69746667Y-68485295D02*
X69794286Y-68390057D01*
X69794286Y-68390057D02*
X69841905Y-68342438D01*
X69841905Y-68342438D02*
X69937143Y-68294819D01*
X69937143Y-68294819D02*
X70175238Y-68294819D01*
X70175238Y-68294819D02*
X70318095Y-68342438D01*
X70651429Y-68294819D02*
X70889524Y-69294819D01*
X70889524Y-69294819D02*
X71080000Y-68580533D01*
X71080000Y-68580533D02*
X71270476Y-69294819D01*
X71270476Y-69294819D02*
X71508572Y-68294819D01*
X72413333Y-69294819D02*
X71841905Y-69294819D01*
X72127619Y-69294819D02*
X72127619Y-68294819D01*
X72127619Y-68294819D02*
X72032381Y-68437676D01*
X72032381Y-68437676D02*
X71937143Y-68532914D01*
X71937143Y-68532914D02*
X71841905Y-68580533D01*
D12*
X95707419Y-83359523D02*
X94707419Y-83359523D01*
X94707419Y-83359523D02*
X95421704Y-83026190D01*
X95421704Y-83026190D02*
X94707419Y-82692857D01*
X94707419Y-82692857D02*
X95707419Y-82692857D01*
X95707419Y-81692857D02*
X95707419Y-82264285D01*
X95707419Y-81978571D02*
X94707419Y-81978571D01*
X94707419Y-81978571D02*
X94850276Y-82073809D01*
X94850276Y-82073809D02*
X94945514Y-82169047D01*
X94945514Y-82169047D02*
X94993133Y-82264285D01*
D11*
X88733333Y-71744819D02*
X88400000Y-71268628D01*
X88161905Y-71744819D02*
X88161905Y-70744819D01*
X88161905Y-70744819D02*
X88542857Y-70744819D01*
X88542857Y-70744819D02*
X88638095Y-70792438D01*
X88638095Y-70792438D02*
X88685714Y-70840057D01*
X88685714Y-70840057D02*
X88733333Y-70935295D01*
X88733333Y-70935295D02*
X88733333Y-71078152D01*
X88733333Y-71078152D02*
X88685714Y-71173390D01*
X88685714Y-71173390D02*
X88638095Y-71221009D01*
X88638095Y-71221009D02*
X88542857Y-71268628D01*
X88542857Y-71268628D02*
X88161905Y-71268628D01*
X89685714Y-71744819D02*
X89114286Y-71744819D01*
X89400000Y-71744819D02*
X89400000Y-70744819D01*
X89400000Y-70744819D02*
X89304762Y-70887676D01*
X89304762Y-70887676D02*
X89209524Y-70982914D01*
X89209524Y-70982914D02*
X89114286Y-71030533D01*
D12*
X73117419Y-97281904D02*
X73926942Y-97281904D01*
X73926942Y-97281904D02*
X74022180Y-97234285D01*
X74022180Y-97234285D02*
X74069800Y-97186666D01*
X74069800Y-97186666D02*
X74117419Y-97091428D01*
X74117419Y-97091428D02*
X74117419Y-96900952D01*
X74117419Y-96900952D02*
X74069800Y-96805714D01*
X74069800Y-96805714D02*
X74022180Y-96758095D01*
X74022180Y-96758095D02*
X73926942Y-96710476D01*
X73926942Y-96710476D02*
X73117419Y-96710476D01*
X74117419Y-95710476D02*
X74117419Y-96281904D01*
X74117419Y-95996190D02*
X73117419Y-95996190D01*
X73117419Y-95996190D02*
X73260276Y-96091428D01*
X73260276Y-96091428D02*
X73355514Y-96186666D01*
X73355514Y-96186666D02*
X73403133Y-96281904D01*
D11*
X93813333Y-97144819D02*
X93480000Y-96668628D01*
X93241905Y-97144819D02*
X93241905Y-96144819D01*
X93241905Y-96144819D02*
X93622857Y-96144819D01*
X93622857Y-96144819D02*
X93718095Y-96192438D01*
X93718095Y-96192438D02*
X93765714Y-96240057D01*
X93765714Y-96240057D02*
X93813333Y-96335295D01*
X93813333Y-96335295D02*
X93813333Y-96478152D01*
X93813333Y-96478152D02*
X93765714Y-96573390D01*
X93765714Y-96573390D02*
X93718095Y-96621009D01*
X93718095Y-96621009D02*
X93622857Y-96668628D01*
X93622857Y-96668628D02*
X93241905Y-96668628D01*
X94194286Y-96240057D02*
X94241905Y-96192438D01*
X94241905Y-96192438D02*
X94337143Y-96144819D01*
X94337143Y-96144819D02*
X94575238Y-96144819D01*
X94575238Y-96144819D02*
X94670476Y-96192438D01*
X94670476Y-96192438D02*
X94718095Y-96240057D01*
X94718095Y-96240057D02*
X94765714Y-96335295D01*
X94765714Y-96335295D02*
X94765714Y-96430533D01*
X94765714Y-96430533D02*
X94718095Y-96573390D01*
X94718095Y-96573390D02*
X94146667Y-97144819D01*
X94146667Y-97144819D02*
X94765714Y-97144819D01*
X82854819Y-65508094D02*
X81854819Y-65508094D01*
X81854819Y-65508094D02*
X81854819Y-65269999D01*
X81854819Y-65269999D02*
X81902438Y-65127142D01*
X81902438Y-65127142D02*
X81997676Y-65031904D01*
X81997676Y-65031904D02*
X82092914Y-64984285D01*
X82092914Y-64984285D02*
X82283390Y-64936666D01*
X82283390Y-64936666D02*
X82426247Y-64936666D01*
X82426247Y-64936666D02*
X82616723Y-64984285D01*
X82616723Y-64984285D02*
X82711961Y-65031904D01*
X82711961Y-65031904D02*
X82807200Y-65127142D01*
X82807200Y-65127142D02*
X82854819Y-65269999D01*
X82854819Y-65269999D02*
X82854819Y-65508094D01*
X82854819Y-63984285D02*
X82854819Y-64555713D01*
X82854819Y-64269999D02*
X81854819Y-64269999D01*
X81854819Y-64269999D02*
X81997676Y-64365237D01*
X81997676Y-64365237D02*
X82092914Y-64460475D01*
X82092914Y-64460475D02*
X82140533Y-64555713D01*
X69334285Y-73231009D02*
X69477142Y-73278628D01*
X69477142Y-73278628D02*
X69524761Y-73326247D01*
X69524761Y-73326247D02*
X69572380Y-73421485D01*
X69572380Y-73421485D02*
X69572380Y-73564342D01*
X69572380Y-73564342D02*
X69524761Y-73659580D01*
X69524761Y-73659580D02*
X69477142Y-73707200D01*
X69477142Y-73707200D02*
X69381904Y-73754819D01*
X69381904Y-73754819D02*
X69000952Y-73754819D01*
X69000952Y-73754819D02*
X69000952Y-72754819D01*
X69000952Y-72754819D02*
X69334285Y-72754819D01*
X69334285Y-72754819D02*
X69429523Y-72802438D01*
X69429523Y-72802438D02*
X69477142Y-72850057D01*
X69477142Y-72850057D02*
X69524761Y-72945295D01*
X69524761Y-72945295D02*
X69524761Y-73040533D01*
X69524761Y-73040533D02*
X69477142Y-73135771D01*
X69477142Y-73135771D02*
X69429523Y-73183390D01*
X69429523Y-73183390D02*
X69334285Y-73231009D01*
X69334285Y-73231009D02*
X69000952Y-73231009D01*
X69858095Y-72754819D02*
X70429523Y-72754819D01*
X70143809Y-73754819D02*
X70143809Y-72754819D01*
X71286666Y-73754819D02*
X70715238Y-73754819D01*
X71000952Y-73754819D02*
X71000952Y-72754819D01*
X71000952Y-72754819D02*
X70905714Y-72897676D01*
X70905714Y-72897676D02*
X70810476Y-72992914D01*
X70810476Y-72992914D02*
X70715238Y-73040533D01*
D13*
%TO.C,J1*%
X87080000Y-79170000D02*
X87080000Y-80420000D01*
X87380000Y-79470000D02*
X87380000Y-84190000D01*
X87380000Y-80780000D02*
X87990000Y-80780000D01*
X87380000Y-82080000D02*
X87990000Y-82080000D01*
X87380000Y-84190000D02*
X93500000Y-84190000D01*
X87990000Y-80080000D02*
X87990000Y-83580000D01*
X87990000Y-83580000D02*
X92890000Y-83580000D01*
X88330000Y-79170000D02*
X87080000Y-79170000D01*
X88840000Y-79270000D02*
X88840000Y-79470000D01*
X89140000Y-79270000D02*
X88840000Y-79270000D01*
X89140000Y-79370000D02*
X88840000Y-79370000D01*
X89140000Y-79470000D02*
X89140000Y-79270000D01*
X89940000Y-79470000D02*
X89940000Y-80080000D01*
X89940000Y-80080000D02*
X87990000Y-80080000D01*
X90340000Y-83080000D02*
X90540000Y-83080000D01*
X90340000Y-83580000D02*
X90340000Y-83080000D01*
X90440000Y-83580000D02*
X90440000Y-83080000D01*
X90540000Y-83080000D02*
X90540000Y-83580000D01*
X90940000Y-80080000D02*
X90940000Y-79470000D01*
X92890000Y-80080000D02*
X90940000Y-80080000D01*
X92890000Y-83580000D02*
X92890000Y-80080000D01*
X93500000Y-79470000D02*
X87380000Y-79470000D01*
X93500000Y-80780000D02*
X92890000Y-80780000D01*
X93500000Y-82080000D02*
X92890000Y-82080000D01*
X93500000Y-84190000D02*
X93500000Y-79470000D01*
%TO.C,D2*%
X102850000Y-105135000D02*
X102850000Y-108225000D01*
X102850000Y-105135170D02*
G75*
G02*
X108400000Y-106679952I2560000J-1544830D01*
G01*
X108400000Y-106680048D02*
G75*
G02*
X102850000Y-108224830I-2990000J48D01*
G01*
X107910000Y-106680000D02*
G75*
G02*
X102910000Y-106680000I-2500000J0D01*
G01*
X102910000Y-106680000D02*
G75*
G02*
X107910000Y-106680000I2500000J0D01*
G01*
%TO.C,SW1*%
X65970000Y-63730000D02*
X65970000Y-67750000D01*
X65970000Y-65230000D02*
X66970000Y-65230000D01*
X65970000Y-67750000D02*
X76190000Y-67750000D01*
X66470000Y-66040000D02*
X65970000Y-66040000D01*
X66470000Y-67250000D02*
X66470000Y-66040000D01*
X66970000Y-65230000D02*
X66970000Y-63730000D01*
X75190000Y-65230000D02*
X75190000Y-63730000D01*
X75690000Y-66040000D02*
X75690000Y-67250000D01*
X75690000Y-67250000D02*
X66470000Y-67250000D01*
X76190000Y-63730000D02*
X65970000Y-63730000D01*
X76190000Y-65230000D02*
X75190000Y-65230000D01*
X76190000Y-66040000D02*
X75690000Y-66040000D01*
X76190000Y-67750000D02*
X76190000Y-63730000D01*
X76490000Y-63430000D02*
X73990000Y-63430000D01*
X76490000Y-65930000D02*
X76490000Y-63430000D01*
%TO.C,R1*%
X82320000Y-73660000D02*
X85630000Y-73660000D01*
X85630000Y-72290000D02*
X85630000Y-75030000D01*
X85630000Y-75030000D02*
X92170000Y-75030000D01*
X92170000Y-72290000D02*
X85630000Y-72290000D01*
X92170000Y-75030000D02*
X92170000Y-72290000D01*
X95480000Y-73660000D02*
X92170000Y-73660000D01*
D12*
%TO.C,U1*%
X63500000Y-100330000D02*
X67310000Y-100330000D01*
X67310000Y-92710000D02*
X63500000Y-92710000D01*
X67310000Y-100330000D02*
X67310000Y-92710000D01*
D13*
%TO.C,R2*%
X87400000Y-99060000D02*
X90710000Y-99060000D01*
X90710000Y-97690000D02*
X90710000Y-100430000D01*
X90710000Y-100430000D02*
X97250000Y-100430000D01*
X97250000Y-97690000D02*
X90710000Y-97690000D01*
X97250000Y-100430000D02*
X97250000Y-97690000D01*
X100560000Y-99060000D02*
X97250000Y-99060000D01*
%TO.C,D1*%
X84815000Y-67330000D02*
X87905000Y-67330000D01*
X84815170Y-67330000D02*
G75*
G02*
X86359952Y-61780000I1544830J2560000D01*
G01*
X86360048Y-61780000D02*
G75*
G02*
X87904830Y-67330000I-48J-2990000D01*
G01*
X88860000Y-64770000D02*
G75*
G02*
X83860000Y-64770000I-2500000J0D01*
G01*
X83860000Y-64770000D02*
G75*
G02*
X88860000Y-64770000I2500000J0D01*
G01*
%TO.C,BT1*%
X66760000Y-74090000D02*
X66760000Y-75340000D01*
X67060000Y-74390000D02*
X67060000Y-79110000D01*
X67060000Y-75700000D02*
X67670000Y-75700000D01*
X67060000Y-77000000D02*
X67670000Y-77000000D01*
X67060000Y-79110000D02*
X73180000Y-79110000D01*
X67670000Y-75000000D02*
X67670000Y-78500000D01*
X67670000Y-78500000D02*
X72570000Y-78500000D01*
X68010000Y-74090000D02*
X66760000Y-74090000D01*
X68520000Y-74190000D02*
X68520000Y-74390000D01*
X68820000Y-74190000D02*
X68520000Y-74190000D01*
X68820000Y-74290000D02*
X68520000Y-74290000D01*
X68820000Y-74390000D02*
X68820000Y-74190000D01*
X69620000Y-74390000D02*
X69620000Y-75000000D01*
X69620000Y-75000000D02*
X67670000Y-75000000D01*
X70020000Y-78000000D02*
X70220000Y-78000000D01*
X70020000Y-78500000D02*
X70020000Y-78000000D01*
X70120000Y-78500000D02*
X70120000Y-78000000D01*
X70220000Y-78000000D02*
X70220000Y-78500000D01*
X70620000Y-75000000D02*
X70620000Y-74390000D01*
X72570000Y-75000000D02*
X70620000Y-75000000D01*
X72570000Y-78500000D02*
X72570000Y-75000000D01*
X73180000Y-74390000D02*
X67060000Y-74390000D01*
X73180000Y-75700000D02*
X72570000Y-75700000D01*
X73180000Y-77000000D02*
X72570000Y-77000000D01*
X73180000Y-79110000D02*
X73180000Y-74390000D01*
%TD*%
M02*
